<?xml version="1.0" encoding="utf-8"?>
<!-- Generator: Adobe Illustrator 15.0.1, SVG Export Plug-In  -->
<!DOCTYPE svg PUBLIC "-//W3C//DTD SVG 1.1//EN" "http://www.w3.org/Graphics/SVG/1.1/DTD/svg11.dtd" [
	<!ENTITY ns_flows "http://ns.adobe.com/Flows/1.0/">
]>
<svg version="1.1"
	 xmlns="http://www.w3.org/2000/svg" xmlns:xlink="http://www.w3.org/1999/xlink" xmlns:a="http://ns.adobe.com/AdobeSVGViewerExtensions/3.0/"
	 x="0px" y="0px" width="711px" height="800px" viewBox="-0.08 -0.56 711 800" enable-background="new -0.08 -0.56 711 800"
	 xml:space="preserve">
<defs>
</defs>
<path id="Schwarz_1_" d="M0,0h711.83v444.08C711.83,639.84,551.67,800,355.92,800C160.16,800,0,639.84,0,444.08V0L0,0z"/>
<path id="Gold_1_" fill="#FFCC00" d="M9.44,8.84v435.39c0,190.98,156.25,347.22,347.23,347.22S703.9,635.21,703.9,444.23V8.84H9.44
	L9.44,8.84z"/>
<path d="M653.11,286.93c11.27-0.05,22.37-0.57,30.44-8.47c7.38-7.49,5.89-20.42,2.98-29.52c-4.41,4.4-10.36,5.09-16.42,5.49
	c-19.91,0.06-37.87-4.86-55.72-9.61l2.8-2.86c0.39,0.28,0.85,0.46,1.31,0.52c24.43-0.29,47.09-5.55,68.72-12.93l1.14-0.86
	c0.34-0.57,0.4-1.31,0.17-2c-0.52-0.74-1.09-1.44-2-1.38c-20.89,6.98-42.51,12.19-65.92,12.65l2.52-2.81
	c23.51-13.44,51.78-32.49,62.31-59.1c6.58-15.79,3.43-36.44-5.38-49.89c-8.01,30.72-36.39,56.52-62.36,75.92l-1.66-3.54
	c19.57-21.86,34.61-45.72,47.71-70.27l10.64-21.22l0.17-1.37c-0.11-0.69-0.86-1.32-1.49-1.6c-0.86-0.35-1.83-0.06-2.46,0.74
	c-15.16,31.3-32.27,61.91-56.59,89.43c-0.29-0.4-0.46-0.92-0.69-1.38l8.29-13.61L634,157.74c8.35-15.22,16.14-30.61,22.26-46.75
	c4.75-13.05,9.27-26.95,7.21-42.05c-1.08-7.72-7.15-15.62-14.7-18.14c-6.01,23.97-15.27,46.52-27.58,67.86
	c-5.89,10.01-12.13,20.19-19.17,29.46c7.32-17,15.33-39.82,5.32-57.91c-2.8,19.75-9.84,37.77-20.6,54.24l-17.45,20.6
	c-4.29,8-8.98,18.76-3.83,27.8c3.32,4.69,8.41,6.7,13.9,6.98c1.26,0.57,1.14,2.06,1.08,3.38c-1.66,10.35-6.35,19.4-12.18,27.98
	c-3.66,4.98-8.47,10.7-14.53,11.79c-4.4,0.69-7.44-2.58-11.44-3.15c-10.07-2.63-23.63-3.49-30.5,6.12
	c-8.81,13.78-0.11,29.98,1.71,44.23c-8.75,5.21-17.85,9.61-27.98,11.39c-14.02,2.4-26.89-2.46-35.13-14.01
	c-12.36-18.19-14.82-41.2-12.93-64.54l1.95,3.14c4.06,5.9,8.64,13.56,15.73,16.19c2.46,0.63,4.75-0.4,6.3-2.35
	c-4.63-3.15-7.27-8.01-8.98-12.82c-5.43-17.96-3.66-39.88-2.17-59.1c2.8,4.35,6.63,9.44,11.67,11.1c3.21,1.03,7.32,0.4,9.78-1.14
	c-10.01-12.47-16.13-31.81-7.38-46.86c8.53-13.32,25.1-14.46,39.69-11.95c-0.92-2.43-1.47-4.7-1.48-6.52
	c-0.08-7.14,3.42-14.67,9.87-21.18c8.13-8.22,19.35-13.33,29.27-13.33l0.76,0.01l0.39,0.14c0.38,0.14,0.77,0.29,1.15,0.43l0.18-0.19
	c-1.89-5.66-3.55-11.21-7.04-16.3c-11.38-17.34-31.87-20.49-51.38-17.05c-19.22,4.92-42.8,6.33-62.48,1.03
	c-7.9,9.34-0.63,13.38,8.7,13.5c-9.55,14.25-20.2,28.1-25.46,44.11c-6.01,4.01-12.13,8.07-19.8,7.67c0.69,1.26,1.37,2.57,2.63,3.44
	c1.89,1.6,4.98,1.54,7.33,1.14l-2.52,8.87l-10.93,31.64l-2.97,10.25c-2,4.57-5.44,10.47-11.16,11.04l0.97,0.97
	c2,2.12,5.27,2.12,7.78,1.38c-3.66,6.8-7.04,13.73-10.24,20.76l-8.81,20.48l-3.03,6.98l-3.03-6.98l-8.82-20.48
	c-3.2-7.04-6.58-13.96-10.24-20.76c2.52,0.74,5.78,0.74,7.78-1.38l0.97-0.97c-5.72-0.57-9.16-6.47-11.16-11.04l-2.98-10.25
	l-10.93-31.64l-2.52-8.87c2.34,0.4,5.43,0.46,7.32-1.14c1.26-0.86,1.95-2.17,2.63-3.44c-7.67,0.4-13.79-3.66-19.8-7.67
	c-5.26-16.01-15.9-29.87-25.46-44.11c9.32-0.12,16.6-4.16,8.7-13.5c-19.68,5.3-43.25,3.89-62.48-1.03
	c-19.51-3.44-39.99-0.29-51.38,17.05c-3.49,5.09-5.15,10.64-7.04,16.3l0.06,0.06c0.37-0.14,0.75-0.28,1.12-0.41l0.39-0.14l0.76-0.01
	c9.92,0,21.13,5.11,29.26,13.33c6.44,6.51,9.94,14.03,9.87,21.18c-0.02,1.86-0.58,4.18-1.54,6.66c14.64-2.57,31.32-1.47,39.9,11.91
	c8.75,15.04,2.63,34.39-7.38,46.86c2.46,1.54,6.58,2.17,9.78,1.14c5.03-1.66,8.87-6.75,11.67-11.1c1.49,19.22,3.26,41.14-2.17,59.1
	c-1.72,4.81-4.35,9.67-8.99,12.82c1.54,1.95,3.83,2.98,6.3,2.35c7.09-2.63,11.67-10.3,15.73-16.19l1.95-3.14
	c1.89,23.34-0.57,46.35-12.93,64.54c-8.24,11.56-21.11,16.42-35.13,14.01c-10.13-1.77-19.22-6.17-27.98-11.39
	c1.83-14.25,10.53-30.44,1.71-44.23c-6.86-9.61-20.42-8.75-30.5-6.12c-4,0.57-7.04,3.83-11.44,3.15
	c-6.06-1.09-10.87-6.81-14.53-11.79c-5.83-8.58-10.53-17.62-12.18-27.98c-0.06-1.31-0.17-2.8,1.08-3.38
	c5.5-0.28,10.59-2.29,13.9-6.98c5.15-9.04,0.46-19.8-3.83-27.8l-17.45-20.6c-10.76-16.48-17.79-34.5-20.6-54.24
	c-10.01,18.09-2,40.91,5.32,57.91c-7.04-9.27-13.27-19.45-19.17-29.46C78.04,97.32,68.78,74.77,62.77,50.8
	c-7.55,2.52-13.62,10.42-14.7,18.14c-2.06,15.1,2.46,29,7.21,42.05c6.12,16.13,13.9,31.53,22.26,46.75l12.36,21.52l8.29,13.61
	c-0.23,0.46-0.4,0.97-0.69,1.38c-24.32-27.53-41.42-58.14-56.59-89.43c-0.63-0.8-1.6-1.08-2.46-0.74c-0.63,0.28-1.37,0.92-1.49,1.6
	l0.17,1.37l10.64,21.22c13.1,24.55,28.15,48.4,47.71,70.27l-1.66,3.54c-25.98-19.4-54.36-45.2-62.36-75.92
	c-8.81,13.44-11.96,34.1-5.38,49.89c10.53,26.61,38.79,45.66,62.31,59.1l2.52,2.81c-23.4-0.46-45.03-5.66-65.91-12.65
	c-0.91-0.06-1.49,0.63-2,1.38c-0.23,0.69-0.17,1.43,0.17,2l1.14,0.86c21.63,7.38,44.29,12.64,68.72,12.93
	c0.46-0.06,0.92-0.23,1.31-0.52l2.8,2.86c-17.85,4.75-35.81,9.67-55.72,9.61c-6.07-0.4-12.02-1.09-16.42-5.49
	c-2.92,9.1-4.4,22.03,2.98,29.52c8.07,7.89,19.16,8.41,30.44,8.47c19.74-0.74,38.16-4.8,56.53-8.98l1.2,2.69L85.54,294.6
	c-17.22,7.32-35.42,13.67-56.07,11.44c-0.69,0.23-1.37,0.86-1.54,1.55c-0.29,0.74,0,1.49,0.4,2l0.98,0.74
	c21,2.57,39.71-4.06,57.38-11.44l31.18-14.19l1.43,2.86c-18.65,17.22-39.31,30.32-60.59,41.48l-23.29,11.73
	c0.34,5.78,3.32,11.79,8.99,14.48c10.35,4.23,21.85,0.18,31.47-2.92c14.3-5.21,27.75-12.47,41.08-20.14l20.2-12.36l6.18-4
	c2.12,0.92,4.24,1.83,6.24,2.92l-27.63,26.03c-23.92,22.03-49.95,38.97-79.7,46.8c-0.8,0.46-1.15,1.2-1.15,2.11
	c0.17,0.8,0.75,1.78,1.66,2.01c4.81-0.75,9.38-2.63,14.02-4.12c26.49-9.44,49.78-26.44,71.69-46.92l24.14-22.83l0.63-1.31l7.32,3.54
	l-11.44,14.65l-14.36,17.4c-24.77,28.83-53.67,56.98-85.02,74.54c10.53,10.47,28.38,12.7,42.17,7.15
	c22.49-8.58,41.65-27.52,58.76-46.86l14.24-17.16l13.44-17.79c2.75-3.9,5.55-7.79,8.36-11.68c1.83,0.57,3.55,1.26,5.38,1.83
	l-2.58,4.35l-19.74,34.9l-12.01,19.79c-16.94,26.6-42.17,58.24-74.21,64.25c-1.55,0.52-3.72,0.06-4.63,1.83
	c-0.34,0.69-0.11,1.54,0.29,2.18c0.69,0.91,1.89,1.2,2.86,0.8c32.79-5.15,59.62-35.99,77.18-63.34l11.96-19.21l17.39-30.62
	l6.98-12.59c0-0.34,0.11-0.74-0.06-1.03c1.72,0.29,3.49,1.08,5.21,1.66l-0.06,0.57l-14.76,29.52l-12.19,22.54l-12.82,21.57
	c-17.16,27.06-41.08,58.82-71.4,71.75c10.53,9.72,24.31,15.85,39.02,11.96c22.31-6.29,39.42-29.35,51.84-48.06
	c10.35-16.13,19.11-32.9,27.29-49.95l12.02-26.6l8.3-19.85l5.15,0.92l-0.11,0.52l-15.96,45.43c-12.19,32.96-27.52,64.65-52.47,92.28
	c-0.34,0.86,0.06,1.72,0.68,2.35c0.63,0.52,1.54,0.8,2.29,0.46c23.8-25.86,39.02-55.5,50.92-86.34l11.16-30.89l7.5-22.31
	c-0.06-0.17,0.06-0.4-0.11-0.52l7.09,1.38l-6.41,22.2l-10.47,33.01l-10.01,28.49l-8.7,22.71l-7.1,16.88
	c17.91,3.61,33.3-6.41,43.03-21.06c14.53-22.6,20.37-48.8,25.35-75.35c1.89-11.61,3.66-23.23,4.92-35.07
	c1.83-0.34,3.84-0.4,5.72-0.57l1.43,15.85l-5.43,26.83l-5.49,27.8c-3.55,15.39-6.92,30.84-14.76,44.51
	c-1.32,2.29-3.15,4.41-4.75,6.58c-0.17,1.14,0.35,2.06,1.26,2.57c2.75,0.86,4.01-2.69,5.55-4.29
	c11.33-17.68,14.82-38.63,19.23-59.22l6.01-31l0.11-0.12c2.23,14.36,5.38,28.32,11.16,41.13l-6.01,21.4
	c-5.61,17.79-11.27,35.59-23.12,50.75c-6.18,7.27-13.67,13.39-23.46,12.19c-3.72-0.74-7.32-3.09-9.21-6.64
	c0.28,9.5,1.37,20.43,11.38,24.37c7.37,2.65,15.98,1.02,23.26-0.87l3.64-1.12l3.82-1.09l2.11-0.8l3.95-1.51l5.78-2.21l0.17,0.17
	v0.17l0.86,4.46l0.15,0.57l1,3.74l1.43,5.36l0.8,2.08l1.31,3.78c0.47-0.45,3.96,7.04,4.63,7.93c3.26,3.95,7.56,6.06,12.65,5.21
	c3.26-0.63,6.18-2.12,8.92-4.01c-14.99-11.79-6.57-33.92-2.17-48.23l6.01-15.5L335,458.91c2.92,0.4,5.89,1.14,8.81,1.83
	c-0.63,15.73-0.52,31.92-4.63,46.34c-1.32,3.38-2.63,7.09-6.07,9.15c0.75,2.63,1.2,5.78,4,7.15c4.23,0.69,7.84-1.71,11.9-2.17
	c-0.63,17.51-4.29,37.3-22.71,44.23c-2.29,0.91-4.57,1.71-6.92,2.34c0.34,3.66,2.35,7.84,6.23,9.15c5.32,1.66,11.27,0.12,16.19-1.66
	c-3.55,14.88-13.21,28.49-26.6,38.39c-11.73,8.37-30.82,19.22-43.6,5.15c-3.09-3.32-4.8-7.15-6.29-11.21
	c-7.33-0.23-14.31,1.88-18.54,8.24c-3.78,5.32-2.17,13.33,1.32,18.3c2.8,4.07,7.03,7.79,11.16,10.3
	c-35.14,9.15-78.55,55.08-47.72,90.23c5.61,6.07,13.84,8.53,21.97,6.13c8.47-2.4,16.71-10.7,18.65-19.28v-3.09l-0.74-2.74
	l-1.94-2.81l-2.46-2.11l-3.38-1.55l-3.49-0.52l-1.89,0.17l-2.97,2l-2.8,1.03h-2.97l-1.66-0.4l-2.17-1.66l-1.55-2.29l-1.14-3.32
	l-0.29-4.81l0.8-4.63c5.91-17.51,10.88-28.83,28.49-36.5l7.1-2l11.04-2.63l2.46-0.8l-0.17,9.26c2.76,25.3,22.84,26.79,31.81,8.3
	l0.46-2.81L300.9,665c-3.17-4.27-2.59-6.26-1.03-11.16l2.81-4.86c9.07-12.24,16.04-21.54,26.32-32.38l6.12-7.84l6.69-10.35
	l6.98-12.48l0.23,0.97l1.09,12.64c-0.15,13.56-0.56,23.06-8.3,34.44l-4.8,4.52l-4.98,2.97l-5.83,2.17l-3.31,0.8l0.28,2.86l1.15,3.32
	l1.31,2l2.07,1.65l2.34,0.75h3.09l4.35-0.92l6.29-2.74l3.44-1.89l-0.4,6.69l-1.83,14.08c-3.4,15.9-7.19,38.53-28.15,34.45
	l-5.15-2.17l-4.12-2.46l-2.69,4.97c-2.54,7.12-2.85,10.51,2.8,15.79l4,2.17c0.4,0.06-2.63-1.44,1.15,0.4l-3.78-0.06l-5.61-0.97
	l-3.26-1.31c-5.17-3.98-4.82-6.95-4.75-13.22l-3.83,1.26l-4.63,2.57c-22.95,20.36,17.16,33.31,44.06,15.22l8.35-7.16l7.84-8.24
	l0.29,0.4l0.97,7.66c0,17.56-4.65,26.54-17.74,38.22l-4.52,3.2l-0.17,3.15l0.63,2.8l1.2,2.18l2.35,2.06l2.58,1.26l3.83,0.97
	l5.89,0.4l1.31-0.06l0.28,3.89l0.86,2.17l1.66,1.78l6.69,4.06l2.46,2l2.46-2l6.69-4.06l1.66-1.78l0.86-2.17l0.28-3.89l1.31,0.05
	l5.9-0.4l3.83-0.97l2.58-1.26l2.35-2.06l1.2-2.18l0.63-2.8l-0.17-3.15l-4.52-3.21c-13.09-11.68-17.74-20.66-17.74-38.22l0.97-7.66
	l0.29-0.4l7.84,8.23l8.36,7.16c26.9,18.09,67,5.13,44.06-15.22l-4.63-2.57l-3.83-1.26c0.07,6.26,0.42,9.25-4.75,13.22l-3.26,1.31
	l-5.61,0.97l-3.78,0.06c3.78-1.83,0.75-0.35,1.15-0.4l4-2.17c5.65-5.29,5.34-8.68,2.8-15.79l-2.69-4.98l-4.12,2.46l-5.15,2.17
	c-20.96,4.09-24.75-18.54-28.15-34.44l-1.83-14.08l-0.4-6.69l3.43,1.89l6.29,2.74l4.35,0.92h3.09l2.34-0.75l2.07-1.65l1.31-2
	l1.15-3.32l0.28-2.86l-3.32-0.8l-5.83-2.17l-4.98-2.97l-4.8-4.52c-7.73-11.39-8.15-20.89-8.3-34.44l1.09-12.64l0.23-0.97l6.98,12.47
	l6.69,10.35l6.12,7.84c10.28,10.85,17.25,20.14,26.32,32.39l2.81,4.86c1.56,4.9,2.14,6.89-1.03,11.16l-3.78,2.63l0.46,2.8
	c8.97,18.49,29.05,17,31.81-8.3l-0.17-9.27l2.46,0.8l11.04,2.64l7.1,2c17.61,7.68,22.59,19,28.49,36.5l0.8,4.64l-0.29,4.8
	l-1.14,3.32l-1.55,2.29l-2.17,1.66l-1.66,0.4h-2.98l-2.8-1.03l-2.97-2l-1.89-0.17l-3.49,0.52l-3.38,1.54l-2.46,2.12l-1.94,2.81
	l-0.74,2.74v3.09c1.94,8.58,10.18,16.88,18.65,19.28c8.12,2.4,16.36-0.06,21.97-6.12c30.84-35.15-12.58-81.08-47.72-90.23
	c4.12-2.52,8.35-6.24,11.16-10.3c3.49-4.98,5.09-12.99,1.32-18.31c-4.23-6.35-11.21-8.47-18.54-8.23c-1.49,4.06-3.2,7.89-6.29,11.21
	c-12.79,14.07-31.87,3.23-43.6-5.15c-13.39-9.9-23.05-23.51-26.6-38.39c4.92,1.77,10.87,3.31,16.19,1.66
	c3.88-1.32,5.89-5.5,6.24-9.16c-2.35-0.63-4.63-1.43-6.93-2.34c-18.42-6.92-22.09-26.72-22.71-44.23c4.06,0.46,7.67,2.86,11.9,2.17
	c2.8-1.37,3.26-4.51,4-7.15c-3.43-2.06-4.75-5.78-6.07-9.16c-4.12-14.42-4-30.61-4.63-46.34c2.92-0.69,5.89-1.43,8.81-1.83l12.36,29
	l6.01,15.5c4.4,14.31,12.82,36.45-2.17,48.23c2.75,1.89,5.66,3.38,8.93,4c5.09,0.86,9.38-1.26,12.64-5.2
	c0.67-0.89,4.16-8.38,4.63-7.93l1.45-3.59c0.91-2.52,1.66-5.11,2.33-7.73l0.88-3.69c0.41-1.77,0.79-3.55,1.18-5.32
	c1.86,0.75,3.73,1.5,5.61,2.23l3.97,1.5c1.99,0.73,4.01,1.41,6.05,2.02l3.56,0.99c7.28,1.89,15.89,3.52,23.26,0.87
	c10.01-3.95,11.1-14.88,11.38-24.37c-1.88,3.55-5.49,5.89-9.21,6.64c-9.78,1.2-17.28-4.92-23.46-12.18
	c-11.85-15.16-17.51-32.96-23.12-50.75l-6.01-21.4c5.78-12.82,8.93-26.77,11.16-41.13l0.11,0.12l6.01,31
	c4.41,20.6,7.9,41.54,19.23,59.22c1.54,1.6,2.8,5.15,5.55,4.3c0.91-0.52,1.43-1.44,1.26-2.57c-1.61-2.18-3.43-4.3-4.75-6.58
	c-7.84-13.67-11.21-29.12-14.76-44.51l-5.49-27.81l-5.43-26.83l1.43-15.85c1.88,0.17,3.89,0.23,5.72,0.57
	c1.26,11.84,3.03,23.46,4.92,35.07c4.98,26.55,10.81,52.75,25.35,75.35c9.73,14.65,25.12,24.66,43.03,21.05l-7.1-16.87l-8.7-22.72
	l-10.01-28.49l-10.47-33.01l-6.41-22.2l7.09-1.38c-0.17,0.12-0.06,0.35-0.11,0.52l7.5,22.31l11.15,30.89
	c11.9,30.84,27.12,60.48,50.92,86.34c0.74,0.35,1.66,0.06,2.29-0.46c0.63-0.63,1.03-1.48,0.68-2.35
	c-24.94-27.63-40.28-59.33-52.47-92.29L478.55,364l-0.11-0.52l5.15-0.92l8.3,19.85l12.02,26.61c8.18,17.05,16.94,33.81,27.29,49.95
	c12.41,18.71,29.53,41.77,51.84,48.06c14.7,3.89,28.49-2.23,39.02-11.96c-30.32-12.93-54.23-44.69-71.4-71.75l-12.82-21.57
	l-12.19-22.54l-14.76-29.52l-0.06-0.57c1.72-0.57,3.49-1.37,5.21-1.66c-0.17,0.29-0.06,0.69-0.06,1.03l6.98,12.59l17.39,30.62
	l11.96,19.22c17.56,27.35,44.4,58.19,77.18,63.34c0.97,0.4,2.17,0.11,2.86-0.8c0.4-0.63,0.63-1.49,0.29-2.18
	c-0.92-1.77-3.09-1.31-4.63-1.83c-32.04-6-57.27-37.65-74.21-64.25l-12.01-19.79l-19.74-34.9l-2.58-4.35
	c1.83-0.57,3.55-1.26,5.38-1.83c2.8,3.89,5.61,7.78,8.36,11.68l13.44,17.79l14.25,17.16c17.11,19.34,36.27,38.28,58.76,46.86
	c13.79,5.55,31.64,3.32,42.17-7.15c-31.35-17.57-60.25-45.72-85.02-74.55l-14.36-17.4l-11.44-14.65l7.32-3.54l0.63,1.31l24.14,22.83
	c21.91,20.48,45.2,37.47,71.69,46.92c4.63,1.49,9.21,3.37,14.02,4.12c0.91-0.23,1.49-1.21,1.66-2.01c0-0.91-0.35-1.65-1.15-2.11
	c-29.75-7.84-55.78-24.78-79.7-46.8l-27.64-26.03c2-1.09,4.12-2,6.24-2.92l6.18,4l20.2,12.36c13.33,7.67,26.77,14.93,41.08,20.14
	c9.61,3.09,21.11,7.15,31.47,2.92c5.67-2.69,8.64-8.7,8.99-14.48l-23.29-11.73c-21.29-11.16-41.94-24.26-60.59-41.48l1.43-2.86
	l31.18,14.19c17.68,7.38,36.39,14.02,57.38,11.44l0.98-0.74c0.4-0.51,0.68-1.26,0.4-2c-0.17-0.69-0.85-1.31-1.54-1.55
	c-20.65,2.23-38.85-4.12-56.07-11.44l-30.61-13.96l1.2-2.69C614.95,282.12,633.37,286.18,653.11,286.93z"/>
<path id="Brustschild_1_" fill-rule="evenodd" clip-rule="evenodd" fill="#2D2D2D" d="M426.59,357.11h0.21l0-2.61l3.2-45.68
	l2.38-22.27l-1.78-0.69c-20.45-7.91-44.6-12.29-76.02-13.78l-0.26,0c-30.85,1.8-53.46,6.05-73.31,13.78l-1.79,0.69l0.88,7.64
	c0.65,5.57,1.32,11.33,1.79,17.04l3.01,44.09h-0.04l0.33,3.83c2.13,24.9,4.33,50.64,17.49,71.67c9.59,15.32,24.95,21.08,36.28,23.23
	c6.38,0.88,12.42,1.32,17.96,1.32c21.59,0,38.02-6.77,48.91-20.21c15.56-20.7,17.94-46.95,20.25-72.34L426.59,357.11z"/>
<path id="Rot_1_" fill-rule="evenodd" clip-rule="evenodd" fill="#E30613" d="M424.02,357.82c-2.51,27.06-4.12,54.47-20.2,75.86
	c-15.68,19.34-40.79,21.17-64.54,17.91c-13.5-2.58-26.55-9.38-34.5-22.09c-13.04-20.83-15.05-46.28-17.22-71.69H424.02
	L424.02,357.82z"/>
<path id="Weiß_1_" fill-rule="evenodd" clip-rule="evenodd" fill="#FFFFFF" d="M429.69,288.19l-2.17,20.37l-3.21,45.77v0.29H287.34
	l-2.98-43.55c-0.63-7.72-1.6-15.27-2.46-22.88c22.48-8.75,47.15-12.13,72.55-13.62C380.88,275.83,406.46,279.2,429.69,288.19
	L429.69,288.19z"/>
<path id="Krallen_Konturen_1_" fill-rule="evenodd" clip-rule="evenodd" fill="#2D2D2D" d="M293.3,542
	c0.21,0.55-1.38,2.71-1.65,3.22c-1.19,2.22-2.03,3.89-3.16,6c-2.95,5.5-5.81,10.83-8.67,16.38c-4.71,9.15-9.85,18.54-14.71,27.62
	c-0.51,0.95-1.39,3.77-2.3,4.3c-0.57,0.33-2.09,0.13-2.72,0.17c-3.73,0.23-7.46,0.46-11.18,0.69c-4.59,0.29-9.27,0.69-13.88,1.02
	c-12.76,0.92-25.19,1.62-38.05,2.52c-6.03,0.42-11.95,0.79-17.93,1.24c-2.6,0.19-5.15,0.33-7.69,0.52
	c-1.44,0.11-4.24-0.37-4.58,1.16c-0.36,1.64-0.98,3.23-1.82,4.69c-0.54,0.95-0.46,0.71,0.21,1.38c1.82,1.83,3.66,3.78,5.39,5.5
	c1.38,1.38,2.77,2.76,4.15,4.15c0.64,0.63,1.59,2.07,2.43,2.43c6.74-0.72,13.76,3.3,16.37,9.63c2.53,6.15,0.96,13.21-3.91,17.7
	c0.32-0.12,0.68-0.12,1-0.24c-3.64,3.95-7.08,8.45-11.98,10.9c-5.37,2.68-11.03,2.33-16.83,2.27c2.15-1.91,4.68-3.72,6.46-6
	c1.02-1.31,1.75-2.8,2.34-4.35c0.37-0.98-1.55-1.67-2.31-2.32c-2.37-2.02-4.22-4.74-5.02-7.76c-0.5-1.87-0.6-3.83-0.38-5.75
	c0.05-0.47,1.1-3.93,0.98-4.07c-0.77-0.85-1.53-1.7-2.3-2.54c-2.08-2.3-4.2-4.56-6.23-6.89c-0.85-0.98-1.9-2.18-2.83-3.21
	c-0.48-0.53-0.96-1.06-1.44-1.59c-0.39-0.43-3.2,0.12-3.94,0.05c-2.72-0.25-6.28,1.95-8.79,2.88c-2.22,0.83-4.9,1.75-6.82,2.33
	c-3.53,1.75-7.39,2.81-11.02,4.18c-1.7,0.65-3.4,1.29-5.1,1.93c-0.41,0.15-0.8,3-1.03,3.57c-0.63,1.65-1.65,3.12-2.81,4.43
	c2.97,0.86,6.62,0.51,9.7,0.59c-2.39,3.23-4.66,6.79-7.93,9.2c-5.27,3.89-10.89,2.35-15.4-1.85c-1.09-1.01-2.18-2.4-3.44-3.2
	c-3.14-1.01-5.94-2.99-7.91-5.63c-3.72-5-4.18-11.91-0.96-17.3c3.46-5.8,10.17-8.61,16.75-7.59c2.08,0.34,4.06,1.18,5.81,2.35
	c0.27,0,0.78-0.4,1.01-0.52c1.63-0.83,3.27-1.68,4.9-2.52c2.27-1.16,4.45-2.18,6.81-3.42c1.05-0.55,2.61-1.23,3.45-1.63
	c0.84-0.4,1.61-0.96,2.45-1.38c1.28-0.63,2.23-0.39,2.04-1.86c-0.1-0.75,0.29-3.66-0.31-3.86c-0.65-0.22-1.31-0.44-1.96-0.66
	c-1.79-0.6-3.57-1.2-5.36-1.8c-2.32-0.78-4.74-1.74-7.13-2.6c-3.59-1.29-6.61-2.64-10.34-3.69c-1.12-0.35-1.65-0.75-2.58-0.02
	c-1.34,1.06-2.84,1.9-4.43,2.52c-3.1,1.19-6.44,1.4-9.65,0.55c-0.75,3.26-1.51,6.53-2.26,9.8c-1.83-0.68-3.75-1.22-5.25-2.52
	c-1.76-1.51-3.16-3.72-4.18-5.8c-1.34-2.73-2.34-5.97-2.55-9.01c-0.08-1.2-0.56-2.7,0.83-2.86c0.74-0.08,1.48-0.16,2.22-0.25
	c-0.7-2.33-0.89-4.82-0.53-7.23c2.01-13.79,20.6-17.59,28.65-6.74c1.26,1.71,1.42,2.37,3.24,3.25c1.72,0.83,3.44,1.67,5.15,2.5
	c2.12,1.03,4.06,2.06,6.13,3.03c5.61,2.61,11.09,5.25,16.71,7.89c2.01,0.95,1.88,1.15,3.95,0.17c1.48-0.7,0.54-2.54,0.3-4.06
	c-0.15-0.94-0.21-2.73-0.32-3.3c-0.17-0.93-0.27-7.09-1.44-6.75c0.11-1.05,0.2-1.96,0.3-2.99c0.06-0.6-0.17-1.28-0.23-1.88
	c-0.12-1.09-1.22-0.96-2.18-1.35c-4.87-1.97-8.73-6.4-9.71-11.6c-5.22,1.05-9.15,4.99-13.15,8.23c0.05-0.21,0.09-0.41,0.14-0.62
	c0.8-3.67,1.33-7.56,2.96-10.97c2.42-5.08,6.3-8.07,11.8-8.95c2.32-0.37,3.89-3.28,6.06-4.49c2.66-1.48,5.72-2.12,8.75-1.98
	c6.38,0.31,12.56,4.82,14.46,11c0.98,3.19,0.82,6.72-0.26,9.87c-0.27,0.8-1.63,2.63-0.93,3.11c0.59,0.4,1.05,0.52,1.18,1.21
	c0.48,2.59,0.4,5.29,0.62,7.91c0.51,6.34,0.93,12.47,1.44,18.71c4.69-1.02,9.8-1.01,14.3-1.85c5.76-1.08,11.72-1.24,17.51-1.99
	c6.44-0.83,12.93-1.33,19.38-2.09c4.12-0.49,8.64-1.05,12.84-1.42c4.04-0.35,8.24-0.76,12.16-1.25c2.87-0.35,6.56-0.15,9.15-1.48
	c5.46-2.81,7.32-10.9,9.47-16.05c2.22-5.33,4.38-10.63,6.53-15.99c0.82-2.05,5.14-14.3,5.95-14.21c0.44-1.41,0.95-2.8,1.47-4.18
	c0.17-0.45,1.29-0.54,1.71-0.66c1.42-0.4,2.89-0.77,4.24-1.29c3.15-1.2,6.29-2.4,9.44-3.61c0.81-0.31,3.08-1.71,3.77-1.02
	c1.55,1.56,1.71,2.32,2.11,4.41c0.55,2.86,1.32,5.65,2.05,8.45c0.28,1.03,0.55,2.07,0.83,3.1C292.25,539.42,292.8,540.69,293.3,542z
	 M635.96,585.18c4.15-13.73-11.25-25.56-23.49-18.18c-2.6,1.57-4.78,3.88-6.12,6.61c-0.75,0.72-2.35,1.14-3.28,1.59
	c-2.55,1.24-5.31,2.72-7.77,3.86c-5.16,2.4-10.16,4.79-15.29,7.21c-1.56,0.73-3.11,1.46-4.66,2.2c-0.32,0.15-0.64,0.3-0.97,0.46
	c-0.32,0.15-2.62-1.09-2.53-1.66c0.52-3.4,0.93-6.44,1.2-9.67c0.06-0.65-0.01-3.98,1.06-3.65c-0.1-0.92-0.18-1.76-0.27-2.65
	c-0.07-0.62,0.08-1.15,0.15-1.77c0.17-1.54,0.83-1.24,2.23-1.81c4.89-1.97,8.72-6.38,9.7-11.6c5.22,1.04,9.15,4.99,13.16,8.23
	c-1.72-7.91-3.58-18.72-13.29-20.28c-0.81-0.13-1.62-0.26-2.43-0.4c-0.87-0.14-1.67-1.64-2.33-2.25c-2.35-2.16-5.34-3.52-8.5-3.95
	c-6.83-0.93-13.57,2.59-16.72,8.73c-1.4,2.72-1.78,5.92-1.36,8.93c0.22,1.56,0.66,3.09,1.31,4.53c0.77,1.69,0.69,1.43-0.8,2.44
	c-0.5,0.34-0.3,2.82-0.33,3.39c-0.11,1.71-0.22,3.42-0.33,5.13c-0.4,6.14-0.91,12.08-1.39,18.11c-0.01,0.15-0.02,0.29-0.03,0.43
	c-8.77-1.9-17.68-2.21-26.54-3.15c-11.07-1.31-22.26-2.54-33.12-3.67c-7.4-0.77-14.91-1.56-22.36-2.49
	c-4.14-0.52-6.19-2.83-8.45-6.38c-1.5-2.36-2.33-5.53-3.41-8.12c-2.15-5.14-4.27-10.31-6.34-15.5c-0.74-1.85-6.2-17.08-7.07-17.01
	c-0.6-1.92-0.74-3.96-2.7-4.56c-2.42-0.72-4.86-1.52-7.21-2.43c-3.86-1.5-7.71-3.03-11.56-4.57c-0.8,3.67-1.56,7.36-2.45,11.01
	c-0.67,2.76-1.44,5.5-2.36,8.19c-0.67,1.91-0.58,2,0.38,3.79c2.68,4.98,5.24,9.86,8.01,15.01c5.05,9.39,10.05,18.9,15.05,28.43
	c1.21,2.3,2.56,4.83,3.73,7c0.78,1.46,1.56,2.93,2.35,4.4c0.39,0.73,1.39,0.48,2.18,0.53c6.02,0.38,12,0.7,17.98,1.18
	c13.3,1.07,25.98,1.78,39.21,2.69c10.47,0.72,21.04,1.31,31.44,2.11c1.7,0.13,3.4,0.26,5.09,0.39c0.12,0.01,2.5,6.38,2.38,6.51
	c-1.8,1.79-3.74,3.86-5.41,5.52c-2.29,2.29-4.59,4.59-6.88,6.88c-0.33,0.33-2.61,0-3.23,0.05c-1.53,0.13-3,0.5-4.42,1.09
	c-3.19,1.34-5.94,3.71-7.82,6.61c-3.9,6.34-2.45,14.73,2.95,19.68c-0.33-0.13-0.7-0.13-1.03-0.25c3.46,3.75,6.74,8.06,11.28,10.53
	c5.55,3.03,11.43,2.7,17.5,2.64c-2.49-2.22-5.53-4.36-7.29-7.24c-0.67-1.09-1.17-2.27-1.63-3.47c-0.1-0.28,2.6-2.08,3.02-2.47
	c2.5-2.33,4.27-5.44,4.77-8.84c0.25-1.65,0.22-3.34-0.06-4.99c-0.08-0.46-1.01-3.08-0.81-3.3c0.96-1.06,1.92-2.13,2.88-3.18
	c1.86-2.06,3.8-4.27,5.61-6.26c1.05-1.17,2.1-2.33,3.15-3.49c0.4-0.45,0.81-0.9,1.21-1.35c0.05-0.05,4.4-0.03,4.71,0.09
	c2.96,1.1,5.91,2.19,8.87,3.29c5.97,2.22,11.75,4.22,17.8,6.5c1.4,0.53,2.8,1.06,4.2,1.59c0.41,0.15,0.8,2.99,1.02,3.57
	c0.63,1.65,1.65,3.12,2.82,4.44c-2.96,0.86-6.61,0.51-9.69,0.6c2.26,3.05,4.38,6.37,7.36,8.77c5.22,4.21,11.08,3.12,15.78-1.26
	c1.08-0.99,2.14-2,3.21-3c0.68-0.64,1.65-0.78,2.49-1.19c1.58-0.76,3.04-1.79,4.29-3.02c4.49-4.45,5.84-11.24,3.47-17.1
	c-2.42-5.96-8.53-9.79-14.89-9.79c-1.85,0-3.71,0.26-5.45,0.91c-0.54,0.2-2.99,1.77-3.35,1.59c-1.51-0.78-3.01-1.55-4.52-2.33
	c-2.37-1.22-4.38-2.12-6.73-3.37c-3.01-1.59-5.72-3.23-8.86-4.4c-1.07-0.4-0.27-2.86-0.34-3.99c-0.07-1.23-0.04-0.95,1.02-1.31
	c1.93-0.65,3.85-1.3,5.78-1.95c2.46-0.83,4.89-1.78,7.4-2.68c3.76-1.35,6.93-2.77,10.81-3.86c0.48-0.15,1.48-0.65,1.96-0.55
	c1.38,1.21,2.97,2.18,4.66,2.88c3.2,1.32,6.69,1.6,10.04,0.71c0.75,3.27,1.5,6.54,2.26,9.8c3.91-1.46,6.4-3.15,8.57-6.86
	c2.28-3.89,3.84-8.69,3.35-13.23C637.96,585.4,636.96,585.3,635.96,585.18z"/>
<path id="Krallen_1_" fill-rule="evenodd" clip-rule="evenodd" fill="#E30613" d="M424.76,530.3l7.01-3.19
	c-1.94-0.76-3.87-1.53-5.79-2.31C425.58,526.64,425.19,528.47,424.76,530.3L424.76,530.3z M421.45,542.11l1.67,3.1l19.99-11.65
	c-0.28-0.92-0.61-1.86-0.97-2.82c-2.11-0.63-4.19-1.34-6.25-2.09l-12.03,5.46C423.17,536.82,422.39,539.51,421.45,542.11
	L421.45,542.11z M424.83,548.53l3.79,7.04l18.45-12.42l-2.61-6.68l-19.75,11.48L424.83,548.53L424.83,548.53z M558.69,546.4
	c-2.78,4.08-2.25,10.35,0.53,14.26c3.01,4.08,7.51,6.09,12.53,5.56c4.44-0.41,8.7-3.43,10.65-7.57c2.07-4.02,1.42-9.7-1.3-13.25
	c-3.2-4.55-8.52-6.2-13.85-5.2C563.89,541.01,560.57,543.2,558.69,546.4L558.69,546.4z M434.18,566.15l17.27-12.36l-3.08-7.69
	l-18.22,12.25L434.18,566.15L434.18,566.15z M585.48,546.63c0.83,2.19,1.36,4.5,1.24,7.04c3.08,0.66,5.8,2.07,8.28,4.08
	C593.99,553.14,590.62,547.46,585.48,546.63L585.48,546.63z M440.63,578.22l14.43-15.67l-2.37-5.68l-16.97,12.12L440.63,578.22
	L440.63,578.22z M556.97,569.17c4.68,0.77,9.58,1.42,14.25,1.89c-0.06-0.59,0.12-1.07,0.18-1.59c-5.44,0.18-10.24-1.84-13.9-5.97
	l-0.18,0.12L556.97,569.17L556.97,569.17z M446.72,589.75l12.66-16.79l-3.01-7.22l-14.14,15.44L446.72,589.75L446.72,589.75z
	 M609.55,573.25c-2.6,3.49-2.84,9.23-0.83,13.07c2.01,4.2,6.45,6.92,10.88,7.39c5.09,0.41,9.29-1.9,12.24-5.86
	c2.72-3.67,3.08-9.76,0.65-13.73c-2.84-4.96-8.1-7.39-13.78-6.74C615.11,567.99,611.74,569.99,609.55,573.25L609.55,573.25z
	 M556.14,579.76l14.02,0.35c0.36-1.89,0.3-3.91,0.71-5.8c-4.68-0.77-9.41-1.36-14.14-1.89L556.14,579.76L556.14,579.76z
	 M450.62,597.03l11.35,0.71l4.2-16.44c-2.07-1.06-3.97-3.31-5.21-5.26l-12.6,16.8L450.62,597.03L450.62,597.03z M601.74,592.18
	c1.89-0.42,3.79-1.36,5.68-1.9c-2.54-3.67-3.78-8.16-2.96-12.89l-6.09,2.96L601.74,592.18L601.74,592.18z M591.87,595.84l6.92-2.48
	l-3.31-11.53l-5.98,2.78L591.87,595.84L591.87,595.84z M472.51,598.51l3.61-15.14l-0.24-0.29l-6.68-0.83l-4.08,15.67L472.51,598.51
	L472.51,598.51z M555.96,582.89c-0.24,1.36-0.24,2.9-0.35,4.32c4.08-1.78,9.34-1.95,13.78-0.89l0.47-3.08
	C565.31,583.01,560.63,583.01,555.96,582.89L555.96,582.89z M475.76,598.74l8.99,0.65c1.19-4.97,2.07-10.12,2.9-15.08
	c-2.78-0.24-5.56-0.53-8.4-0.77L475.76,598.74L475.76,598.74z M488.01,599.45c3.19,0.35,6.44,0.65,9.64,0.65l1-14.49
	c-2.55-0.48-5.15-0.6-7.75-0.95L488.01,599.45L488.01,599.45z M627.35,595.49l1.54,6.68c2.54-0.94,3.96-3.84,5.26-6.03
	c1.3-3.19,2.66-6.5,2.25-10.35C635.04,589.81,631.37,593.84,627.35,595.49L627.35,595.49z M500.72,600.4l10.35,0.71l1.12-14.07
	c-3.43-0.54-6.92-0.77-10.41-1.19L500.72,600.4L500.72,600.4z M577.43,590.34c2.66,2.48,4.67,5.32,5.56,8.58l5.79-1.95l-2.19-10.94
	L577.43,590.34L577.43,590.34z M514.27,601.28l10.05,0.71l1.71-13.43c-3.55-0.41-7.09-1.01-10.7-1.25L514.27,601.28L514.27,601.28z
	 M548.04,598.86c-1.77,4.67-0.47,10.06,2.72,13.66c4.79,5.21,11.95,6.98,18.75,4.91c4.73-1.42,9.7-5.86,10.7-10.82
	c1.24-5.03-0.53-9.71-4.14-13.19c-4.38-4.08-10.47-5.68-16.5-4.2C554.84,590.23,549.75,594.07,548.04,598.86L548.04,598.86z
	 M527.51,602.17l8.75,0.65l1.59-13.01c-2.84-0.54-5.79-0.65-8.75-0.94L527.51,602.17L527.51,602.17z M540.82,591.11L539.4,603
	l4.67,0.35c0.11-4.79,2.07-8.87,5.62-12.25c-2.73-0.59-5.74-0.71-8.58-1L540.82,591.11L540.82,591.11z M582.75,609.04
	c-1.65,4.96-6.74,9.4-11.47,11.06l7.15,2.66l7.04-12.36C584.59,609.86,583.7,609.39,582.75,609.04L582.75,609.04z M581.51,623.7
	c2.01,1.01,4.37,1.72,6.57,2.54l5.85-11.53l-5.5-2.9C585.83,615.54,583.88,619.8,581.51,623.7L581.51,623.7z M545.96,617.25
	c2.96,2.02,5.92,4.14,8.88,6.27l2.78-3.08c-3.31-1.07-6.51-2.84-9.11-5.73L545.96,617.25L545.96,617.25z M595.88,629.14
	c0.18-4.32,2.13-7.86,4.97-11l-4.02-2.07l-5.8,11.24L595.88,629.14L595.88,629.14z M600.97,623.11c-2.31,3.49-2.6,9.16-0.47,12.89
	c2.43,4.32,6.92,7.04,11.83,7.09c4.96,0.06,9.58-2.6,11.95-7.04c2.42-4.02,1.89-10.11-0.89-13.78c-3.25-4.38-8.16-6.21-13.49-5.38
	C606.3,617.49,602.99,619.92,600.97,623.11L600.97,623.11z M538.16,625.18c3.49,1.06,6.86,3.61,8.99,6.92l5.56-6.15l-8.87-6.44
	L538.16,625.18L538.16,625.18z M521.54,633.99c-2.37,3.84-2.48,9.82,0.12,13.6c2.84,4.44,7.51,6.69,12.6,6.33
	c4.73-0.42,9.16-3.55,11.18-7.92c1.95-4.08,1.18-9.64-1.54-13.07c-3.31-4.14-8.05-6.15-13.31-5.27
	C526.98,628.37,523.61,630.8,521.54,633.99L521.54,633.99z M595.65,643.16c2.54,3.43,5.91,6.98,10.35,6.5
	c2.36-0.24,4.26-1.65,6.03-3.31c-3.73-0.35-7.34-1.41-10.3-3.96C599.91,643.1,597.78,643.1,595.65,643.16L595.65,643.16z
	 M528.88,656.53c3.55,3.84,8.75,6.27,14.49,6.21c-2.12-1.9-3.49-4.26-4.43-6.74C535.85,657.12,532.12,657.3,528.88,656.53
	L528.88,656.53z M287.17,530.36l-7.2-3.28l5.98-2.28l0.18,0.18v0.18l0.89,4.61L287.17,530.36L287.17,530.36z M290.51,541.91
	l-1.78,3.31l-19.99-11.65c0.3-0.96,0.65-1.97,1.03-2.98l3.94-1.13l2.18-0.83l12.31,5.58l1.48,5.54L290.51,541.91L290.51,541.91z
	 M287.01,548.54l-3.78,7.04l-18.46-12.42l2.6-6.69l19.75,11.48L287.01,548.54L287.01,548.54z M153.16,546.41
	c2.78,4.08,2.25,10.35-0.53,14.26c-3.02,4.08-7.51,6.09-12.54,5.56c-4.44-0.42-8.69-3.43-10.65-7.57c-2.07-4.02-1.42-9.7,1.3-13.25
	c3.19-4.55,8.52-6.21,13.84-5.2C147.95,541.03,151.27,543.22,153.16,546.41L153.16,546.41z M277.67,566.17l-17.28-12.36l3.08-7.68
	l18.22,12.24L277.67,566.17L277.67,566.17z M126.37,546.65c-0.83,2.19-1.36,4.49-1.24,7.04c-3.08,0.65-5.8,2.07-8.28,4.08
	C117.85,553.15,121.22,547.47,126.37,546.65L126.37,546.65z M271.22,578.23l-14.43-15.68l2.37-5.68L276.13,569L271.22,578.23
	L271.22,578.23z M154.87,569.18c-4.67,0.77-9.58,1.42-14.25,1.89c0.06-0.59-0.12-1.07-0.18-1.6c5.44,0.18,10.23-1.83,13.9-5.97
	l0.18,0.12L154.87,569.18L154.87,569.18z M265.13,589.76l-12.66-16.79l3.01-7.22l14.14,15.44L265.13,589.76L265.13,589.76z
	 M102.29,573.26c2.6,3.49,2.84,9.23,0.83,13.07c-2.01,4.2-6.45,6.92-10.89,7.4c-5.08,0.41-9.28-1.89-12.24-5.86
	c-2.72-3.66-3.07-9.76-0.65-13.72c2.84-4.97,8.1-7.4,13.78-6.74C96.74,568,100.11,570.01,102.29,573.26L102.29,573.26z
	 M155.7,579.77l-14.02,0.36c-0.35-1.89-0.29-3.9-0.71-5.79c4.68-0.77,9.41-1.36,14.14-1.9L155.7,579.77L155.7,579.77z
	 M261.22,597.04l-11.36,0.71l-4.2-16.44c2.07-1.06,3.96-3.31,5.21-5.26l12.6,16.8L261.22,597.04L261.22,597.04z M110.1,592.19
	c-1.89-0.41-3.78-1.36-5.68-1.9c2.54-3.66,3.78-8.16,2.95-12.89l6.09,2.96L110.1,592.19L110.1,592.19z M119.98,595.86l-6.92-2.48
	l3.31-11.54l5.98,2.78L119.98,595.86L119.98,595.86z M239.34,598.52l-3.61-15.14l0.24-0.29l6.68-0.83l4.08,15.67L239.34,598.52
	L239.34,598.52z M155.88,582.91c0.24,1.36,0.24,2.9,0.36,4.32c-4.08-1.78-9.34-1.95-13.78-0.89l-0.47-3.08
	C146.54,583.02,151.21,583.02,155.88,582.91L155.88,582.91z M236.08,598.75l-8.99,0.66c-1.18-4.97-2.07-10.12-2.9-15.09
	c2.78-0.23,5.56-0.53,8.4-0.76L236.08,598.75L236.08,598.75z M223.84,599.47c-3.2,0.36-6.45,0.65-9.64,0.65l-1.01-14.49
	c2.54-0.48,5.15-0.59,7.75-0.95L223.84,599.47L223.84,599.47z M84.49,595.5l-1.54,6.68c-2.54-0.94-3.96-3.84-5.27-6.03
	c-1.3-3.19-2.66-6.5-2.25-10.35C76.8,589.82,80.47,593.85,84.49,595.5L84.49,595.5z M211.13,600.41l-10.35,0.71l-1.13-14.07
	c3.43-0.53,6.92-0.77,10.41-1.18L211.13,600.41L211.13,600.41z M134.41,590.36c-2.66,2.48-4.67,5.32-5.56,8.57l-5.79-1.95
	l2.18-10.94L134.41,590.36L134.41,590.36z M197.58,601.3l-10.05,0.71l-1.72-13.42c3.55-0.41,7.1-1,10.71-1.24L197.58,601.3
	L197.58,601.3z M163.8,598.88c1.77,4.67,0.47,10.06-2.72,13.66c-4.79,5.21-11.95,6.98-18.75,4.91c-4.73-1.42-9.7-5.86-10.71-10.82
	c-1.24-5.03,0.54-9.7,4.15-13.19c4.38-4.08,10.46-5.68,16.5-4.2C157,590.24,162.09,594.09,163.8,598.88L163.8,598.88z
	 M184.33,602.19l-8.75,0.65l-1.6-13.01c2.84-0.53,5.8-0.65,8.75-0.95L184.33,602.19L184.33,602.19z M171.02,591.13l1.42,11.89
	l-4.67,0.35c-0.12-4.79-2.07-8.87-5.62-12.25c2.72-0.59,5.73-0.71,8.57-1L171.02,591.13L171.02,591.13z M129.09,609.04
	c1.66,4.97,6.75,9.41,11.48,11.06l-7.16,2.66l-7.04-12.36C127.25,609.88,128.14,609.4,129.09,609.04L129.09,609.04z M130.33,623.72
	c-2.01,1-4.38,1.72-6.57,2.54l-5.86-11.53l5.5-2.9C126.01,615.56,127.96,619.81,130.33,623.72L130.33,623.72z M165.88,617.27
	c-2.96,2.01-5.92,4.14-8.87,6.27l-2.78-3.07c3.31-1.07,6.51-2.84,9.11-5.74L165.88,617.27L165.88,617.27z M115.96,629.15
	c-0.18-4.31-2.13-7.86-4.97-11l4.02-2.07l5.8,11.23L115.96,629.15L115.96,629.15z M110.87,623.12c2.3,3.49,2.6,9.17,0.47,12.89
	c-2.42,4.32-6.92,7.04-11.83,7.1c-4.96,0.06-9.58-2.6-11.95-7.04c-2.42-4.02-1.89-10.12,0.89-13.78c3.26-4.38,8.17-6.21,13.49-5.38
	C105.55,617.51,108.86,619.93,110.87,623.12L110.87,623.12z M173.68,625.2c-3.49,1.06-6.86,3.61-8.99,6.92l-5.56-6.15l8.87-6.45
	L173.68,625.2L173.68,625.2z M190.31,634.01c2.37,3.84,2.48,9.82-0.12,13.61c-2.84,4.43-7.51,6.68-12.6,6.33
	c-4.73-0.41-9.16-3.55-11.18-7.92c-1.95-4.09-1.18-9.65,1.54-13.07c3.31-4.14,8.04-6.15,13.3-5.26
	C184.86,628.39,188.24,630.82,190.31,634.01L190.31,634.01z M116.19,643.18c-2.55,3.43-5.92,6.98-10.35,6.5
	c-2.36-0.24-4.26-1.65-6.03-3.31c3.72-0.35,7.33-1.41,10.29-3.96C111.94,643.12,114.06,643.12,116.19,643.18L116.19,643.18z
	 M182.97,656.54c-3.55,3.84-8.75,6.27-14.49,6.21c2.13-1.89,3.49-4.25,4.44-6.74C175.99,657.13,179.72,657.32,182.97,656.54
	L182.97,656.54z"/>
<path id="Kontur_1_" fill-rule="evenodd" clip-rule="evenodd" fill="#2D2D2D" d="M140.75,140.02c-2.57-2.63-2.19-6.45-1.92-9.24
	l0.38-4.23l3.17,1.38c2.84,1.24,6.33,1.95,9.56,1.95h0c2.56,0,6.21-0.43,9.1-2.49c7.91-6.57,18.96-14.36,33.04-15.28l0.44-0.03
	c0.1-1.15,0.13-2.15,0.11-2.9c-5.07-3.46-10.05-5.08-15.57-5.08c-8.67,0-19.42,3.82-35.96,12.77l-3.21,1.74l-0.45-3.63
	c-2.79-22.64,15.25-31.8,29.07-36.73l0.39-0.14l0.76-0.01c9.92,0,21.13,5.11,29.26,13.33c6.44,6.51,9.94,14.03,9.87,21.18
	c-0.07,8.52-11.14,26.58-23.3,26.58c-1.94,0-3.8-0.46-5.56-1.37l-4.33-2.26l4.37-2.18c6.53-3.25,10.16-7.87,12.19-12.3
	c-6.24,2.22-11.99,5.54-18.03,9.08c-7.05,4.14-14.34,8.42-22.49,10.68l-0.51,0.12c-1.48,0.33-3.31,0.75-5.15,0.75
	c-1.94,0-3.59-0.47-4.91-1.41l-0.18-0.13L140.75,140.02z M525.87,139.31c1.94,0,3.8-0.46,5.55-1.37l4.33-2.26l-4.37-2.18
	c-6.61-3.29-10.25-7.98-12.27-12.46c5.79,1.91,11.06,5.06,16.61,8.4c3.76,2.27,7.66,4.61,11.8,6.55c0.93,0.41,1.86,0.84,2.8,1.27
	c4.62,2.14,9.4,4.35,14.95,4.35c1.05,0,2.11-0.08,3.15-0.25l0.33-0.05l0.3-0.13c4.39-1.95,3.95-6.86,3.69-9.8
	c-0.04-0.42-0.07-0.83-0.1-1.21l-0.21-3.52l-3.25,1.37c-2.95,1.25-6.5,1.96-9.72,1.96c-3,0-5.66-0.6-7.72-1.74
	c-9.31-7.32-20.4-15.16-34.31-16.03l-0.61-0.04c-0.1-1.15-0.12-2.15-0.11-2.9c5.08-3.46,10.05-5.08,15.57-5.08
	c8.67,0,19.42,3.82,35.95,12.77l3.21,1.74l0.45-3.63c2.79-22.64-15.26-31.8-29.07-36.72l-0.39-0.14l-0.76-0.01
	c-9.92,0-21.14,5.11-29.27,13.33c-6.44,6.51-9.94,14.03-9.87,21.18C502.63,121.25,513.71,139.31,525.87,139.31z"/>
<path id="Zunge_3_" fill-rule="evenodd" clip-rule="evenodd" fill="#E30613" d="M194.25,114.6c-0.28,1.26-0.46,2.75-1.31,3.55
	c-14.82,4.75-26.89,16.13-41.94,20.31c-2.57,0.57-6.12,1.49-8.46-0.17c-1.95-2-1.38-5.43-1.14-8.06c6.18,2.69,15.33,3.32,21.11-0.8
	C171.89,121.63,181.96,115.4,194.25,114.6L194.25,114.6z"/>
<path id="Schnabel_3_" fill-rule="evenodd" clip-rule="evenodd" fill="#E30613" d="M141.93,114.68
	c-2.35-19.05,10.97-28.21,27.43-34.08c16.83-0.2,37.13,15.86,36.95,31.99c-0.07,8.7-13.68,29.03-25.22,23.03
	c14.8-7.38,16.44-21.63,15.97-27.78C183.29,97.83,169.58,99.71,141.93,114.68L141.93,114.68z"/>
<path id="Zunge_2_" fill-rule="evenodd" clip-rule="evenodd" fill="#E30613" d="M550.36,130.33c5.66,3.26,13.96,2.46,19.8,0
	c0.17,2.92,1.09,7.16-2.12,8.58c-7.27,1.15-13.39-2.52-19.51-5.2c-10.24-4.81-19.22-12.36-30.09-15.51
	c-0.69-0.97-0.86-2.29-1.14-3.49C530.16,115.51,540.41,122.49,550.36,130.33L550.36,130.33z"/>
<path id="Schnabel_2_" fill-rule="evenodd" clip-rule="evenodd" fill="#E30613" d="M569.44,114.79
	c2.34-19.04-10.98-28.21-27.43-34.07c-16.83-0.2-37.13,15.85-36.96,31.99c0.07,8.7,13.69,29.03,25.22,23.03
	c-14.8-7.38-16.44-21.64-15.97-27.78C528.09,97.93,541.8,99.82,569.44,114.79L569.44,114.79z"/>
<path id="Gefieder_1_" fill-rule="evenodd" clip-rule="evenodd" fill="#FFFFFF" d="M272.4,354.32c-9.6,7.32-29.23,6.07-29.23,6.07
	c-23.78-0.46-25.65-10.19-25.65-10.19C228.95,361.18,272.4,354.32,272.4,354.32z M165.21,320.02c0,0-0.42,10.93,21.57,20
	c0,0,16.46,7.11,28.06,3.78C214.83,343.81,171.87,334.41,165.21,320.02z M161.41,319.13c-5.23-3.07-18.85-14.86-28.62-26.99
	c-9.77-12.13-15.7-24.59-17.99-29.01c0,0-5.33,5.14,14.06,30c11.81,15.15,18.27,20.47,23.84,23.04L161.41,319.13z M97.24,204.13
	c0,0-9.23,3.06-2.18,25.78c0,0,5.59,20.79,15.56,27.6C110.62,257.51,90.43,218.44,97.24,204.13z M89.39,214.01
	c-3.47-2.23-6.25-4.01-9.03-5.79c-2.77-1.78-6.25-4-8.6-6.44c-15.82-11.99-28.16-26.36-38.39-44.01
	c2.86,18.46,29.77,42.18,36.02,46.19c3.05,2.88,5.83,4.66,9.3,6.88c2.78,1.78,5.55,3.56,7.64,4.9L89.39,214.01z M103.86,164.75
	c-4.29-5.97-7.79-11.3-11.48-18c-3.5-5.33-7.01-10.65-9.91-16.71c-15.53-27.47-23.21-48.51-22.68-60.36
	c-8.91,17.29,16.76,57.98,18.7,62.02c3.51,5.33,6.41,11.39,10.7,17.36c3.5,5.33,6.4,11.39,9.91,16.72L103.86,164.75z M104.38,262.63
	c0,0-26.61,4.4-38.36,4.19c-12.55,0.61-24.33-0.37-35.36-2.95c9.65,8.87,28.81,6.39,35.54,6.84c11.71-0.57,24.22-1.95,38.33-4.97
	l0,0l3.53-0.33L104.38,262.63z M126.51,302.27c-12.17,10.99-24,19.56-36.13,26.59c-11.5,6.13-22.53,10.59-33.08,13.36
	c14,2.9,30.13-8.05,35.05-11.35c11.5-6.13,23.34-14.69,35.5-25.69L126.51,302.27z M167.9,340.88c-5.44,5.79-25.19,30.75-30.63,35.9
	c-25.66,26.35-47.12,42.52-62.67,54.08c11.66-4.5,34.6-22.05,38.43-25.33c26.37-22.56,36.87-38.33,41.65-44.14
	c4.42-5.35,9.33-12.8,14.77-18.59l0,0L167.9,340.88z M211.37,356.88c-8.42,25.98-30.91,65.67-34.65,71.83
	c-20.31,33.09-28.26,32.7-59.81,68.78c23.89-13.77,53.44-49.77,60.92-62.11c3.74-6.16,27.4-47.95,36.48-75.79L211.37,356.88z
	 M256.43,367.78c-1.46,5.18-1.88,9.58-3.34,14.77c-1.37,4.31-2.83,9.5-4.28,14.69l0,0c-6.17,24.27-13.99,45.73-21.64,65.42
	c16.14-17.99,23.65-56.35,26.4-64.96l0,0c0.42-4.4,1.88-9.6,3.34-14.78c1.29-3.43,1.71-7.83,3.09-12.15L256.43,367.78z
	 M625.22,215.74c2.08-1.33,4.86-3.11,7.63-4.9c3.47-2.22,6.25-4.01,9.3-6.88c6.25-4.01,33.17-27.72,36.02-46.19
	c-10.24,17.65-22.57,32.02-38.4,44.01c-2.36,2.44-5.82,4.66-8.6,6.44s-5.55,3.56-9.03,5.79L625.22,215.74z M612.44,165.77
	c3.5-5.33,6.4-11.39,9.91-16.72c4.29-5.97,7.19-12.03,10.7-17.36c1.94-4.03,27.61-44.73,18.7-62.02
	c0.53,11.86-7.15,32.9-22.68,60.36c-2.9,6.06-6.41,11.38-9.91,16.71c-3.69,6.7-7.19,12.03-11.48,18L612.44,165.77z M603.47,265.4
	l3.53,0.34l0,0c14.11,3.02,26.61,4.4,38.32,4.97c6.73-0.45,25.89,2.03,35.54-6.84c-11.03,2.58-22.81,3.56-35.35,2.95
	c-11.75,0.21-38.36-4.19-38.36-4.19L603.47,265.4z M583.69,305.18c12.17,10.99,24,19.56,35.51,25.69
	c4.91,3.3,21.04,14.25,35.04,11.35c-10.55-2.77-21.58-7.23-33.08-13.36c-12.12-7.04-23.96-15.6-36.13-26.6L583.69,305.18z
	 M542.08,342.81L542.08,342.81c5.44,5.79,10.35,13.23,14.77,18.58c4.79,5.8,15.29,21.58,41.66,44.14
	c3.83,3.28,26.77,20.83,38.43,25.33c-15.55-11.57-37.01-27.73-62.67-54.08c-5.44-5.15-25.19-30.11-30.63-35.9L542.08,342.81z
	 M497.23,359.6c9.08,27.84,32.74,69.62,36.48,75.79c7.48,12.34,37.04,48.34,60.92,62.11c-31.55-36.07-39.5-35.69-59.81-68.78
	c-3.74-6.16-26.23-45.85-34.65-71.83L497.23,359.6z M451.55,370.78c1.38,4.31,1.8,8.71,3.08,12.15c1.46,5.19,2.92,10.38,3.34,14.78
	l0,0c2.75,8.61,10.26,46.97,26.4,64.96c-7.65-19.69-15.47-41.14-21.64-65.42l0,0c-1.45-5.19-2.91-10.38-4.28-14.69
	c-1.46-5.19-1.88-9.6-3.34-14.77L451.55,370.78z M494.01,350.2c0,0-1.87,9.73-25.65,10.19c0,0-19.63,1.25-29.23-6.07
	C439.13,354.32,482.58,361.18,494.01,350.2z M496.69,343.81c11.61,3.32,28.06-3.78,28.06-3.78c21.99-9.07,21.57-20,21.57-20
	C539.66,334.41,496.7,343.81,496.69,343.81z M558.83,316.17c5.57-2.57,12.04-7.89,23.84-23.04c19.39-24.86,14.06-30,14.06-30
	c-2.29,4.42-8.22,16.88-17.99,29.01c-9.77,12.13-23.39,23.92-28.62,26.99L558.83,316.17z M600.91,257.51
	c9.97-6.81,15.56-27.6,15.56-27.6c7.06-22.71-2.17-25.78-2.17-25.78C621.11,218.44,600.91,257.51,600.91,257.51z"/>
<path id="Augen_1_" fill-rule="evenodd" clip-rule="evenodd" fill="#FFFFFF" d="M223.66,74.21c-1.14,2.29-3.84,3.32-6.07,4.18
	c-7.5,1.95-17.22,3.03-24.77,0.4c-0.51-0.23-0.51-0.8-0.34-1.2c1.83-2.63,3.78-5.26,6.47-7.49c-0.57,2.92,0.34,5.66,2.23,7.78
	c1.6,1.6,3.78,2.34,6.12,1.71c2.41-0.57,4.3-3.15,4.98-5.38c0.4-1.83,0.4-4.12-0.34-5.78C215.99,70.03,219.77,72.21,223.66,74.21
	L223.66,74.21z M501.89,78.2c-2.75-2.4-3.43-6.46-2.17-9.78c-4.06,1.6-7.96,3.78-11.84,5.84c1.6,2.46,4.23,3.43,6.69,4.29
	c7.16,2,16.42,2.57,23.75,0.51c0.4-0.28,1.15-0.46,0.98-1.15c-1.83-2.8-3.77-5.55-6.58-7.84c0.17,1.2,0.17,2.29,0,3.49
	c-0.57,2.28-2,4.86-4.41,5.78C506.18,80.15,503.55,79.8,501.89,78.2L501.89,78.2z"/>
</svg>
